<svg width="7" height="13" viewBox="0 0 7 13" fill="none" xmlns="http://www.w3.org/2000/svg">
<path d="M6.23218 0.112307H4.8415C4.49245 0.0901313 4.1432 0.152023 3.81737 0.2938C3.49154 0.435576 3.19672 0.653935 2.95282 0.934118C2.70892 1.2143 2.52164 1.54978 2.40362 1.91789C2.2856 2.28599 2.2396 2.67815 2.26873 3.06785V4.42895H0.869701C0.811795 4.42895 0.756271 4.45468 0.715325 4.50048C0.674379 4.54628 0.651367 4.6084 0.651367 4.67317V6.64172C0.651551 6.70642 0.674609 6.76842 0.715516 6.81418C0.756422 6.85994 0.811851 6.88573 0.869701 6.88594H2.26873V11.8637C2.26891 11.9285 2.29207 11.9906 2.33313 12.0364C2.37419 12.0822 2.42979 12.1079 2.48776 12.1079H4.31165C4.36962 12.1079 4.42523 12.0822 4.46628 12.0364C4.50734 11.9906 4.5305 11.9285 4.53069 11.8637V6.88594H6.16543C6.22333 6.88594 6.27888 6.86021 6.31982 6.81441C6.36077 6.76861 6.38376 6.70649 6.38376 6.64172V4.66773C6.38352 4.60301 6.36056 4.541 6.3198 4.49506C6.29945 4.47229 6.27526 4.45424 6.24865 4.44196C6.22204 4.42968 6.19351 4.42341 6.16473 4.42351H4.52929V3.26929C4.52929 2.71474 4.6475 2.43318 5.29417 2.43318H6.23148C6.28939 2.43318 6.34494 2.40745 6.38588 2.36165C6.42683 2.31585 6.44982 2.25373 6.44982 2.18896V0.357305C6.44982 0.292596 6.42693 0.230514 6.38616 0.184612C6.34538 0.13871 6.29003 0.112718 6.23218 0.112307Z" fill="#616161"/>
</svg>
