<svg width="102" height="32" viewBox="0 0 102 32" fill="none" xmlns="http://www.w3.org/2000/svg">
<path d="M1 28.8926L1.60241 29.1318" stroke="#1AFF7C" stroke-width="1.5" stroke-miterlimit="10" stroke-linecap="round"/>
<path d="M1.60254 29.1317L2.20495 29.0886" stroke="#1AFF7C" stroke-width="1.5" stroke-miterlimit="10" stroke-linecap="round"/>
<path d="M2.20508 29.0887L2.80749 28.3529" stroke="#1AFF7C" stroke-width="1.5" stroke-miterlimit="10" stroke-linecap="round"/>
<path d="M2.80713 28.3529L3.40954 28.3809" stroke="#1AFF7C" stroke-width="1.5" stroke-miterlimit="10" stroke-linecap="round"/>
<path d="M3.40967 28.381L4.01208 28.2249" stroke="#1AFF7C" stroke-width="1.5" stroke-miterlimit="10" stroke-linecap="round"/>
<path d="M4.01221 28.2249L4.61462 28.6453" stroke="#1AFF7C" stroke-width="1.5" stroke-miterlimit="10" stroke-linecap="round"/>
<path d="M4.61426 28.6453L5.21667 28.8851" stroke="#1AFF7C" stroke-width="1.5" stroke-miterlimit="10" stroke-linecap="round"/>
<path d="M5.2168 28.8851L5.81921 28.3" stroke="#1AFF7C" stroke-width="1.5" stroke-miterlimit="10" stroke-linecap="round"/>
<path d="M5.81934 28.2999L6.42175 25.3519" stroke="#1AFF7C" stroke-width="1.5" stroke-miterlimit="10" stroke-linecap="round"/>
<path d="M6.42188 25.3521L7.02428 25.3875" stroke="#1AFF7C" stroke-width="1.5" stroke-miterlimit="10" stroke-linecap="round"/>
<path d="M7.02393 25.3876L7.62634 25.5288" stroke="#1AFF7C" stroke-width="1.5" stroke-miterlimit="10" stroke-linecap="round"/>
<path d="M7.62646 25.5287L8.22887 26.561" stroke="#1AFF7C" stroke-width="1.5" stroke-miterlimit="10" stroke-linecap="round"/>
<path d="M8.229 26.5609L8.83141 29.1438" stroke="#1AFF7C" stroke-width="1.5" stroke-miterlimit="10" stroke-linecap="round"/>
<path d="M8.83105 29.1439L9.43346 28.4286" stroke="#1AFF7C" stroke-width="1.5" stroke-miterlimit="10" stroke-linecap="round"/>
<path d="M9.43359 28.4286L10.036 27.704" stroke="#1AFF7C" stroke-width="1.5" stroke-miterlimit="10" stroke-linecap="round"/>
<path d="M10.0361 27.7039L10.6385 28.5597" stroke="#1AFF7C" stroke-width="1.5" stroke-miterlimit="10" stroke-linecap="round"/>
<path d="M10.6387 28.5599L11.2411 29.0502" stroke="#1AFF7C" stroke-width="1.5" stroke-miterlimit="10" stroke-linecap="round"/>
<path d="M11.2412 29.05L11.8436 29.579" stroke="#1AFF7C" stroke-width="1.5" stroke-miterlimit="10" stroke-linecap="round"/>
<path d="M11.8433 29.5791L12.4457 30.0531" stroke="#1AFF7C" stroke-width="1.5" stroke-miterlimit="10" stroke-linecap="round"/>
<path d="M12.4458 30.053L13.0482 29.2239" stroke="#1AFF7C" stroke-width="1.5" stroke-miterlimit="10" stroke-linecap="round"/>
<path d="M13.0483 29.224L13.6507 29.0492" stroke="#1AFF7C" stroke-width="1.5" stroke-miterlimit="10" stroke-linecap="round"/>
<path d="M13.6504 29.0492L14.2528 29.2497" stroke="#1AFF7C" stroke-width="1.5" stroke-miterlimit="10" stroke-linecap="round"/>
<path d="M14.2529 29.2495L14.8553 29.139" stroke="#1AFF7C" stroke-width="1.5" stroke-miterlimit="10" stroke-linecap="round"/>
<path d="M14.8555 29.1392L15.4579 29.7585" stroke="#1AFF7C" stroke-width="1.5" stroke-miterlimit="10" stroke-linecap="round"/>
<path d="M15.458 29.7585L16.0604 29.3457" stroke="#1AFF7C" stroke-width="1.5" stroke-miterlimit="10" stroke-linecap="round"/>
<path d="M16.0605 29.3457L16.663 29.5646" stroke="#1AFF7C" stroke-width="1.5" stroke-miterlimit="10" stroke-linecap="round"/>
<path d="M16.6626 29.5646L17.265 29.771" stroke="#1AFF7C" stroke-width="1.5" stroke-miterlimit="10" stroke-linecap="round"/>
<path d="M17.2651 29.771L17.8675 29.2883" stroke="#1AFF7C" stroke-width="1.5" stroke-miterlimit="10" stroke-linecap="round"/>
<path d="M17.8672 29.2884L18.4696 28.5541" stroke="#1AFF7C" stroke-width="1.5" stroke-miterlimit="10" stroke-linecap="round"/>
<path d="M18.4697 28.5541L19.0721 30.6349" stroke="#1AFF7C" stroke-width="1.5" stroke-miterlimit="10" stroke-linecap="round"/>
<path d="M19.0723 30.6348L19.6747 29.8748" stroke="#1AFF7C" stroke-width="1.5" stroke-miterlimit="10" stroke-linecap="round"/>
<path d="M19.6748 29.875L20.2772 26.1863" stroke="#1AFF7C" stroke-width="1.5" stroke-miterlimit="10" stroke-linecap="round"/>
<path d="M20.2773 26.1862L20.8798 23.8" stroke="#1AFF7C" stroke-width="1.5" stroke-miterlimit="10" stroke-linecap="round"/>
<path d="M20.8794 23.8001L21.4818 23.7617" stroke="#1AFF7C" stroke-width="1.5" stroke-miterlimit="10" stroke-linecap="round"/>
<path d="M21.4819 23.7617L22.0843 23.8258" stroke="#1AFF7C" stroke-width="1.5" stroke-miterlimit="10" stroke-linecap="round"/>
<path d="M22.0845 23.8257L22.6869 24.9403" stroke="#1AFF7C" stroke-width="1.5" stroke-miterlimit="10" stroke-linecap="round"/>
<path d="M22.6865 24.9404L23.2889 25.3702" stroke="#1AFF7C" stroke-width="1.5" stroke-miterlimit="10" stroke-linecap="round"/>
<path d="M23.2891 25.37L23.8915 25.281" stroke="#1AFF7C" stroke-width="1.5" stroke-miterlimit="10" stroke-linecap="round"/>
<path d="M23.8916 25.2812L24.494 24.5361" stroke="#1AFF7C" stroke-width="1.5" stroke-miterlimit="10" stroke-linecap="round"/>
<path d="M24.4941 24.536L25.0966 23.0553" stroke="#1AFF7C" stroke-width="1.5" stroke-miterlimit="10" stroke-linecap="round"/>
<path d="M25.0967 23.0553L25.6991 23.9936" stroke="#1AFF7C" stroke-width="1.5" stroke-miterlimit="10" stroke-linecap="round"/>
<path d="M25.6987 23.9936L26.3011 23.8406" stroke="#1AFF7C" stroke-width="1.5" stroke-miterlimit="10" stroke-linecap="round"/>
<path d="M26.3013 23.8406L26.9037 24.0539" stroke="#1AFF7C" stroke-width="1.5" stroke-miterlimit="10" stroke-linecap="round"/>
<path d="M26.9033 24.0538L27.5057 24.4324" stroke="#1AFF7C" stroke-width="1.5" stroke-miterlimit="10" stroke-linecap="round"/>
<path d="M27.5059 24.4326L28.1083 23.7505" stroke="#1AFF7C" stroke-width="1.5" stroke-miterlimit="10" stroke-linecap="round"/>
<path d="M28.1084 23.7505L28.7108 23.8016" stroke="#1AFF7C" stroke-width="1.5" stroke-miterlimit="10" stroke-linecap="round"/>
<path d="M28.7109 23.8014L29.3133 23.1193" stroke="#1AFF7C" stroke-width="1.5" stroke-miterlimit="10" stroke-linecap="round"/>
<path d="M29.3135 23.1195L29.9159 21.8527" stroke="#1AFF7C" stroke-width="1.5" stroke-miterlimit="10" stroke-linecap="round"/>
<path d="M29.9155 21.8526L30.5179 20.5046" stroke="#1AFF7C" stroke-width="1.5" stroke-miterlimit="10" stroke-linecap="round"/>
<path d="M30.5181 20.5046L31.1205 21.4873" stroke="#1AFF7C" stroke-width="1.5" stroke-miterlimit="10" stroke-linecap="round"/>
<path d="M31.1206 21.4873L31.723 21.725" stroke="#1AFF7C" stroke-width="1.5" stroke-miterlimit="10" stroke-linecap="round"/>
<path d="M31.7227 21.725L32.3251 21.4879" stroke="#1AFF7C" stroke-width="1.5" stroke-miterlimit="10" stroke-linecap="round"/>
<path d="M32.3252 21.4879L32.9276 20.7201" stroke="#1AFF7C" stroke-width="1.5" stroke-miterlimit="10" stroke-linecap="round"/>
<path d="M32.9277 20.7201L33.5301 21.8437" stroke="#1AFF7C" stroke-width="1.5" stroke-miterlimit="10" stroke-linecap="round"/>
<path d="M33.5303 21.8435L34.1327 22.2937" stroke="#1AFF7C" stroke-width="1.5" stroke-miterlimit="10" stroke-linecap="round"/>
<path d="M34.1328 22.2938L34.7352 21.1504" stroke="#1AFF7C" stroke-width="1.5" stroke-miterlimit="10" stroke-linecap="round"/>
<path d="M34.7349 21.1505L35.3373 20.7897" stroke="#1AFF7C" stroke-width="1.5" stroke-miterlimit="10" stroke-linecap="round"/>
<path d="M35.3374 20.7897L35.9398 19.2396" stroke="#1AFF7C" stroke-width="1.5" stroke-miterlimit="10" stroke-linecap="round"/>
<path d="M35.9395 19.2396L36.5419 17.0076" stroke="#1AFF7C" stroke-width="1.5" stroke-miterlimit="10" stroke-linecap="round"/>
<path d="M36.542 17.0076L37.1444 16.6879" stroke="#1AFF7C" stroke-width="1.5" stroke-miterlimit="10" stroke-linecap="round"/>
<path d="M37.1445 16.6878L37.7469 15.394" stroke="#1AFF7C" stroke-width="1.5" stroke-miterlimit="10" stroke-linecap="round"/>
<path d="M37.7471 15.3939L38.3495 16.8169" stroke="#1AFF7C" stroke-width="1.5" stroke-miterlimit="10" stroke-linecap="round"/>
<path d="M38.3496 16.8171L38.952 16.2012" stroke="#1AFF7C" stroke-width="1.5" stroke-miterlimit="10" stroke-linecap="round"/>
<path d="M38.9517 16.201L39.5541 16.9072" stroke="#1AFF7C" stroke-width="1.5" stroke-miterlimit="10" stroke-linecap="round"/>
<path d="M39.5542 16.9073L40.1566 17.064" stroke="#1AFF7C" stroke-width="1.5" stroke-miterlimit="10" stroke-linecap="round"/>
<path d="M40.1567 17.064L40.7591 15.978" stroke="#1AFF7C" stroke-width="1.5" stroke-miterlimit="10" stroke-linecap="round"/>
<path d="M40.7588 15.978L41.3612 16.0338" stroke="#1AFF7C" stroke-width="1.5" stroke-miterlimit="10" stroke-linecap="round"/>
<path d="M41.3613 16.0338L41.9637 16.812" stroke="#1AFF7C" stroke-width="1.5" stroke-miterlimit="10" stroke-linecap="round"/>
<path d="M41.9639 16.8121L42.5663 16.2212" stroke="#1AFF7C" stroke-width="1.5" stroke-miterlimit="10" stroke-linecap="round"/>
<path d="M42.5664 16.2212L43.1688 16.0133" stroke="#1AFF7C" stroke-width="1.5" stroke-miterlimit="10" stroke-linecap="round"/>
<path d="M43.1689 16.0132L43.7714 16.3434" stroke="#1AFF7C" stroke-width="1.5" stroke-miterlimit="10" stroke-linecap="round"/>
<path d="M43.771 16.3434L44.3734 19.0028" stroke="#1AFF7C" stroke-width="1.5" stroke-miterlimit="10" stroke-linecap="round"/>
<path d="M44.3735 19.003L44.9759 18.97" stroke="#1AFF7C" stroke-width="1.5" stroke-miterlimit="10" stroke-linecap="round"/>
<path d="M44.9761 18.9699L45.5785 17.1478" stroke="#1AFF7C" stroke-width="1.5" stroke-miterlimit="10" stroke-linecap="round"/>
<path d="M45.5781 17.1478L46.1805 16.5695" stroke="#1AFF7C" stroke-width="1.5" stroke-miterlimit="10" stroke-linecap="round"/>
<path d="M46.1807 16.5695L46.7831 11.6006" stroke="#1AFF7C" stroke-width="1.5" stroke-miterlimit="10" stroke-linecap="round"/>
<path d="M46.7832 11.6006L47.3856 7.57605" stroke="#1AFF7C" stroke-width="1.5" stroke-miterlimit="10" stroke-linecap="round"/>
<path d="M47.3857 7.57602L47.9881 5.78418" stroke="#1AFF7C" stroke-width="1.5" stroke-miterlimit="10" stroke-linecap="round"/>
<path d="M47.9878 5.78408L48.5902 3.96558" stroke="#1AFF7C" stroke-width="1.5" stroke-miterlimit="10" stroke-linecap="round"/>
<path d="M48.5903 3.9657L49.1927 4.72489" stroke="#1AFF7C" stroke-width="1.5" stroke-miterlimit="10" stroke-linecap="round"/>
<path d="M49.1929 4.72473L49.7953 5.62731" stroke="#1AFF7C" stroke-width="1.5" stroke-miterlimit="10" stroke-linecap="round"/>
<path d="M49.7949 5.62749L50.3973 5.55164" stroke="#1AFF7C" stroke-width="1.5" stroke-miterlimit="10" stroke-linecap="round"/>
<path d="M50.3975 5.55163L50.9999 3.94202" stroke="#1AFF7C" stroke-width="1.5" stroke-miterlimit="10" stroke-linecap="round"/>
<path d="M51 3.94189L51.6024 4.33226" stroke="#1AFF7C" stroke-width="1.5" stroke-miterlimit="10" stroke-linecap="round"/>
<path d="M51.6025 4.33219L52.205 3.7395" stroke="#1AFF7C" stroke-width="1.5" stroke-miterlimit="10" stroke-linecap="round"/>
<path d="M52.2051 3.73954L52.8075 3.52563" stroke="#1AFF7C" stroke-width="1.5" stroke-miterlimit="10" stroke-linecap="round"/>
<path d="M52.8071 3.52576L53.4095 2.85315" stroke="#1AFF7C" stroke-width="1.5" stroke-miterlimit="10" stroke-linecap="round"/>
<path d="M53.4097 2.85315L54.0121 4.61241" stroke="#1AFF7C" stroke-width="1.5" stroke-miterlimit="10" stroke-linecap="round"/>
<path d="M54.0122 4.61243L54.6146 4.72894" stroke="#1AFF7C" stroke-width="1.5" stroke-miterlimit="10" stroke-linecap="round"/>
<path d="M54.6143 4.72885L55.2167 3.88367" stroke="#1AFF7C" stroke-width="1.5" stroke-miterlimit="10" stroke-linecap="round"/>
<path d="M55.2168 3.88379L55.8192 4.54431" stroke="#1AFF7C" stroke-width="1.5" stroke-miterlimit="10" stroke-linecap="round"/>
<path d="M55.8193 4.54425L56.4217 3.71008" stroke="#1AFF7C" stroke-width="1.5" stroke-miterlimit="10" stroke-linecap="round"/>
<path d="M56.4219 3.71008L57.0243 5.09471" stroke="#1AFF7C" stroke-width="1.5" stroke-miterlimit="10" stroke-linecap="round"/>
<path d="M57.0239 5.09473L57.6263 5.55433" stroke="#1AFF7C" stroke-width="1.5" stroke-miterlimit="10" stroke-linecap="round"/>
<path d="M57.6265 5.55426L58.2289 4.87219" stroke="#1AFF7C" stroke-width="1.5" stroke-miterlimit="10" stroke-linecap="round"/>
<path d="M58.229 4.87207L58.8314 5.58792" stroke="#1AFF7C" stroke-width="1.5" stroke-miterlimit="10" stroke-linecap="round"/>
<path d="M58.8311 5.58813L59.4335 6.64186" stroke="#1AFF7C" stroke-width="1.5" stroke-miterlimit="10" stroke-linecap="round"/>
<path d="M59.4336 6.64185L60.036 7.83202" stroke="#1AFF7C" stroke-width="1.5" stroke-miterlimit="10" stroke-linecap="round"/>
<path d="M60.0361 7.83204L60.6385 6.33191" stroke="#1AFF7C" stroke-width="1.5" stroke-miterlimit="10" stroke-linecap="round"/>
<path d="M60.6387 6.33179L61.2411 7.71569" stroke="#1AFF7C" stroke-width="1.5" stroke-miterlimit="10" stroke-linecap="round"/>
<path d="M61.2412 7.71577L61.8436 5.58167" stroke="#1AFF7C" stroke-width="1.5" stroke-miterlimit="10" stroke-linecap="round"/>
<path d="M61.8433 5.58154L62.4457 8.17859" stroke="#1AFF7C" stroke-width="1.5" stroke-miterlimit="10" stroke-linecap="round"/>
<path d="M62.4458 8.17861L63.0482 8.04443" stroke="#1AFF7C" stroke-width="1.5" stroke-miterlimit="10" stroke-linecap="round"/>
<path d="M63.0483 8.04453L63.6507 7.06702" stroke="#1AFF7C" stroke-width="1.5" stroke-miterlimit="10" stroke-linecap="round"/>
<path d="M63.6504 7.06708L64.2528 7.00818" stroke="#1AFF7C" stroke-width="1.5" stroke-miterlimit="10" stroke-linecap="round"/>
<path d="M64.2529 7.00806L64.8553 7.83233" stroke="#1AFF7C" stroke-width="1.5" stroke-miterlimit="10" stroke-linecap="round"/>
<path d="M64.8555 7.83246L65.4579 7.80786" stroke="#1AFF7C" stroke-width="1.5" stroke-miterlimit="10" stroke-linecap="round"/>
<path d="M65.458 7.80782L66.0604 6.91565" stroke="#1AFF7C" stroke-width="1.5" stroke-miterlimit="10" stroke-linecap="round"/>
<path d="M66.0605 6.91561L66.663 6.66846" stroke="#1AFF7C" stroke-width="1.5" stroke-miterlimit="10" stroke-linecap="round"/>
<path d="M66.6626 6.66846L67.265 7.86995" stroke="#1AFF7C" stroke-width="1.5" stroke-miterlimit="10" stroke-linecap="round"/>
<path d="M67.2651 7.87L67.8675 8.25073" stroke="#1AFF7C" stroke-width="1.5" stroke-miterlimit="10" stroke-linecap="round"/>
<path d="M67.8672 8.25062L68.4696 7.10754" stroke="#1AFF7C" stroke-width="1.5" stroke-miterlimit="10" stroke-linecap="round"/>
<path d="M68.4697 7.10755L69.0721 6.50818" stroke="#1AFF7C" stroke-width="1.5" stroke-miterlimit="10" stroke-linecap="round"/>
<path d="M69.0723 6.50818L69.6747 8.04767" stroke="#1AFF7C" stroke-width="1.5" stroke-miterlimit="10" stroke-linecap="round"/>
<path d="M69.6748 8.04773L70.2772 8.20348" stroke="#1AFF7C" stroke-width="1.5" stroke-miterlimit="10" stroke-linecap="round"/>
<path d="M70.2773 8.20341L70.8798 7.99036" stroke="#1AFF7C" stroke-width="1.5" stroke-miterlimit="10" stroke-linecap="round"/>
<path d="M70.8794 7.99033L71.4818 7.12341" stroke="#1AFF7C" stroke-width="1.5" stroke-miterlimit="10" stroke-linecap="round"/>
<path d="M71.4819 7.12352L72.0843 7.04358" stroke="#1AFF7C" stroke-width="1.5" stroke-miterlimit="10" stroke-linecap="round"/>
<path d="M72.0845 7.04346L72.6869 4.8855" stroke="#1AFF7C" stroke-width="1.5" stroke-miterlimit="10" stroke-linecap="round"/>
<path d="M72.6865 4.88563L73.2889 1.36658" stroke="#1AFF7C" stroke-width="1.5" stroke-miterlimit="10" stroke-linecap="round"/>
<path d="M73.2891 1.36658L73.8915 3.09215" stroke="#1AFF7C" stroke-width="1.5" stroke-miterlimit="10" stroke-linecap="round"/>
<path d="M73.8916 3.09209L74.494 2.27869" stroke="#1AFF7C" stroke-width="1.5" stroke-miterlimit="10" stroke-linecap="round"/>
<path d="M74.4941 2.27869L75.0966 3.17845" stroke="#1AFF7C" stroke-width="1.5" stroke-miterlimit="10" stroke-linecap="round"/>
<path d="M75.0967 3.17859L75.6991 4.74108" stroke="#1AFF7C" stroke-width="1.5" stroke-miterlimit="10" stroke-linecap="round"/>
<path d="M75.6987 4.74097L76.3011 6.79826" stroke="#1AFF7C" stroke-width="1.5" stroke-miterlimit="10" stroke-linecap="round"/>
<path d="M76.3013 6.79829L76.9037 5.36768" stroke="#1AFF7C" stroke-width="1.5" stroke-miterlimit="10" stroke-linecap="round"/>
<path d="M76.9033 5.36755L77.5057 6.59702" stroke="#1AFF7C" stroke-width="1.5" stroke-miterlimit="10" stroke-linecap="round"/>
<path d="M77.5059 6.59708L78.1083 6.54883" stroke="#1AFF7C" stroke-width="1.5" stroke-miterlimit="10" stroke-linecap="round"/>
<path d="M78.1084 6.54898L78.7108 6.50146" stroke="#1AFF7C" stroke-width="1.5" stroke-miterlimit="10" stroke-linecap="round"/>
<path d="M78.7109 6.50147L79.3134 5.77808" stroke="#1AFF7C" stroke-width="1.5" stroke-miterlimit="10" stroke-linecap="round"/>
<path d="M79.3135 5.77804L79.9159 5.42261" stroke="#1AFF7C" stroke-width="1.5" stroke-miterlimit="10" stroke-linecap="round"/>
<path d="M79.9155 5.42249L80.5179 7.69011" stroke="#1AFF7C" stroke-width="1.5" stroke-miterlimit="10" stroke-linecap="round"/>
<path d="M80.5181 7.69018L81.1205 6.75012" stroke="#1AFF7C" stroke-width="1.5" stroke-miterlimit="10" stroke-linecap="round"/>
<path d="M81.1206 6.75L81.723 7.21164" stroke="#1AFF7C" stroke-width="1.5" stroke-miterlimit="10" stroke-linecap="round"/>
<path d="M81.7227 7.21179L82.3251 7.68902" stroke="#1AFF7C" stroke-width="1.5" stroke-miterlimit="10" stroke-linecap="round"/>
<path d="M82.3252 7.68902L82.9276 6.80884" stroke="#1AFF7C" stroke-width="1.5" stroke-miterlimit="10" stroke-linecap="round"/>
<path d="M82.9277 6.80884L83.5301 7.62165" stroke="#1AFF7C" stroke-width="1.5" stroke-miterlimit="10" stroke-linecap="round"/>
<path d="M83.5303 7.62172L84.1327 6.9823" stroke="#1AFF7C" stroke-width="1.5" stroke-miterlimit="10" stroke-linecap="round"/>
<path d="M84.1328 6.98212L84.7352 5.56213" stroke="#1AFF7C" stroke-width="1.5" stroke-miterlimit="10" stroke-linecap="round"/>
<path d="M84.7349 5.56229L85.3373 5.24426" stroke="#1AFF7C" stroke-width="1.5" stroke-miterlimit="10" stroke-linecap="round"/>
<path d="M85.3374 5.24414L85.9398 5.42887" stroke="#1AFF7C" stroke-width="1.5" stroke-miterlimit="10" stroke-linecap="round"/>
<path d="M85.9395 5.42898L86.5419 4.54834" stroke="#1AFF7C" stroke-width="1.5" stroke-miterlimit="10" stroke-linecap="round"/>
<path d="M86.542 4.54835L87.1444 4.39148" stroke="#1AFF7C" stroke-width="1.5" stroke-miterlimit="10" stroke-linecap="round"/>
<path d="M87.1445 4.39136L87.7469 5.03305" stroke="#1AFF7C" stroke-width="1.5" stroke-miterlimit="10" stroke-linecap="round"/>
<path d="M87.7471 5.03319L88.3495 4.4679" stroke="#1AFF7C" stroke-width="1.5" stroke-miterlimit="10" stroke-linecap="round"/>
<path d="M88.3496 4.4679L88.952 4.60441" stroke="#1AFF7C" stroke-width="1.5" stroke-miterlimit="10" stroke-linecap="round"/>
<path d="M88.9517 4.60437L89.5541 4.76841" stroke="#1AFF7C" stroke-width="1.5" stroke-miterlimit="10" stroke-linecap="round"/>
<path d="M89.5542 4.76846L90.1566 4.15491" stroke="#1AFF7C" stroke-width="1.5" stroke-miterlimit="10" stroke-linecap="round"/>
<path d="M90.1567 4.15477L90.7592 3.27722" stroke="#1AFF7C" stroke-width="1.5" stroke-miterlimit="10" stroke-linecap="round"/>
<path d="M90.7588 3.27722L91.3612 3.58744" stroke="#1AFF7C" stroke-width="1.5" stroke-miterlimit="10" stroke-linecap="round"/>
<path d="M91.3613 3.58752L91.9637 4.20774" stroke="#1AFF7C" stroke-width="1.5" stroke-miterlimit="10" stroke-linecap="round"/>
<path d="M91.9639 4.20776L92.5663 4.76347" stroke="#1AFF7C" stroke-width="1.5" stroke-miterlimit="10" stroke-linecap="round"/>
<path d="M92.5664 4.76353L93.1688 4.45068" stroke="#1AFF7C" stroke-width="1.5" stroke-miterlimit="10" stroke-linecap="round"/>
<path d="M93.1689 4.45068L93.7713 4.50838" stroke="#1AFF7C" stroke-width="1.5" stroke-miterlimit="10" stroke-linecap="round"/>
<path d="M93.771 4.5083L94.3734 5.23083" stroke="#1AFF7C" stroke-width="1.5" stroke-miterlimit="10" stroke-linecap="round"/>
<path d="M94.3735 5.23083L94.9759 5.29599" stroke="#1AFF7C" stroke-width="1.5" stroke-miterlimit="10" stroke-linecap="round"/>
<path d="M94.9756 5.29597L95.578 4.61426" stroke="#1AFF7C" stroke-width="1.5" stroke-miterlimit="10" stroke-linecap="round"/>
<path d="M95.5781 4.61435L96.1805 4.50586" stroke="#1AFF7C" stroke-width="1.5" stroke-miterlimit="10" stroke-linecap="round"/>
<path d="M96.1807 4.50567L96.7831 4.21753" stroke="#1AFF7C" stroke-width="1.5" stroke-miterlimit="10" stroke-linecap="round"/>
<path d="M96.7832 4.21755L97.3856 4.19202" stroke="#1AFF7C" stroke-width="1.5" stroke-miterlimit="10" stroke-linecap="round"/>
<path d="M97.3857 4.19202L97.9881 6.12939" stroke="#1AFF7C" stroke-width="1.5" stroke-miterlimit="10" stroke-linecap="round"/>
<path d="M97.9878 6.12944L98.5902 5.328" stroke="#1AFF7C" stroke-width="1.5" stroke-miterlimit="10" stroke-linecap="round"/>
<path d="M98.5903 5.32786L99.1927 3.70032" stroke="#1AFF7C" stroke-width="1.5" stroke-miterlimit="10" stroke-linecap="round"/>
<path d="M99.1929 3.70043L99.7953 1.50818" stroke="#1AFF7C" stroke-width="1.5" stroke-miterlimit="10" stroke-linecap="round"/>
<path d="M99.7949 1.5083L100.397 1.64987" stroke="#1AFF7C" stroke-width="1.5" stroke-miterlimit="10" stroke-linecap="round"/>
<path d="M100.397 1.6499L101 1.99541" stroke="#1AFF7C" stroke-width="1.5" stroke-miterlimit="10" stroke-linecap="round"/>
</svg>
