<svg width="15" height="15" viewBox="0 0 15 15" fill="none" xmlns="http://www.w3.org/2000/svg">
<path d="M7.96875 14.2147C9.82527 14.2147 11.6057 13.4772 12.9185 12.1644C14.2313 10.8517 14.9688 9.07118 14.9688 7.21466C14.9688 5.35815 14.2313 3.57767 12.9185 2.26491C11.6057 0.952159 9.82527 0.214661 7.96875 0.214661C6.11223 0.214661 4.33176 0.952159 3.019 2.26491C1.70625 3.57767 0.96875 5.35815 0.96875 7.21466C0.96875 9.07118 1.70625 10.8517 3.019 12.1644C4.33176 13.4772 6.11223 14.2147 7.96875 14.2147ZM8.7825 5.97916L7.9075 10.096C7.84625 10.3935 7.93288 10.5624 8.1735 10.5624C8.34325 10.5624 8.59963 10.5012 8.77375 10.3472L8.69675 10.7112C8.44562 11.0139 7.89175 11.2344 7.41488 11.2344C6.79975 11.2344 6.53813 10.8652 6.70788 10.0803L7.35362 7.04579C7.40963 6.78941 7.35888 6.69666 7.1025 6.63454L6.70788 6.56366L6.77962 6.23029L8.78337 5.97916H8.7825ZM7.96875 5.02716C7.73669 5.02716 7.51413 4.93497 7.35003 4.77088C7.18594 4.60678 7.09375 4.38422 7.09375 4.15216C7.09375 3.9201 7.18594 3.69754 7.35003 3.53344C7.51413 3.36935 7.73669 3.27716 7.96875 3.27716C8.20081 3.27716 8.42337 3.36935 8.58747 3.53344C8.75156 3.69754 8.84375 3.9201 8.84375 4.15216C8.84375 4.38422 8.75156 4.60678 8.58747 4.77088C8.42337 4.93497 8.20081 5.02716 7.96875 5.02716Z" fill="#BDBDBD"/>
</svg>
