<svg width="15" height="15" viewBox="0 0 15 15" fill="none" xmlns="http://www.w3.org/2000/svg">
<path d="M13.7221 4.24651L13.7222 4.25742L13.7228 4.26831C13.7638 4.99373 13.764 5.2202 13.7655 7.1124L13.7655 7.11878C13.7655 7.11891 13.7655 7.11904 13.7655 7.11917C13.7655 9.01143 13.7558 9.2402 13.724 9.97668L13.7238 9.97667L13.7236 9.98858C13.7134 10.5147 13.6179 11.0321 13.4402 11.5225C13.2899 11.9221 13.0615 12.2839 12.7703 12.5852C12.4791 12.8865 12.1317 13.1208 11.7506 13.2742C11.2809 13.4563 10.7852 13.5543 10.2845 13.5646L10.2744 13.5648L10.2644 13.5654C9.56595 13.6077 9.34686 13.6079 7.51191 13.6079C5.684 13.6079 5.46374 13.5979 4.75224 13.565L4.75224 13.5649L4.74616 13.5647C4.24355 13.5476 3.7471 13.4419 3.27809 13.2518L3.27615 13.251C2.89393 13.0979 2.54549 12.8635 2.25364 12.5618C1.96235 12.2606 1.73388 11.8989 1.58371 11.4994C1.40589 11.0081 1.31039 10.4905 1.30021 9.96528L1.30003 9.95599L1.29951 9.94671C1.25845 9.22141 1.2583 8.99387 1.2583 7.09549C1.2583 5.20366 1.26802 4.97489 1.29984 4.23757L1.29999 4.23758L1.30022 4.22515C1.3098 3.70122 1.40574 3.18312 1.58367 2.69325C1.73358 2.29344 1.96191 1.93155 2.25317 1.63016C2.54428 1.32893 2.8918 1.09481 3.27304 0.941684C3.74273 0.759567 4.23839 0.661205 4.73911 0.650483L4.74864 0.650279L4.75815 0.649712C5.45689 0.608072 5.67627 0.60791 7.51116 0.60791C9.3395 0.60791 9.55958 0.617203 10.2701 0.650064L10.27 0.65022L10.2825 0.650485C10.7835 0.661128 11.2793 0.75948 11.7492 0.941655C12.1304 1.0949 12.4779 1.32908 12.769 1.63032C13.0603 1.93174 13.2887 2.29366 13.4387 2.69348C13.6193 3.18991 13.7152 3.71543 13.7221 4.24651ZM10.1808 2.43199L10.5404 2.77945L10.1808 2.43199C10.0602 2.55681 9.96539 2.70407 9.90099 2.86495C9.8366 3.0258 9.80366 3.19764 9.80366 3.3708C9.80366 3.52494 9.82956 3.67418 9.87749 3.81358C9.19793 3.2918 8.36785 3.00352 7.50666 3.00352C5.29888 3.00352 3.5391 4.84945 3.5391 7.09161C3.5391 9.33377 5.29888 11.1797 7.50666 11.1797C8.56454 11.1797 9.57549 10.7447 10.3181 9.97624C11.0602 9.20836 11.4742 8.17043 11.4742 7.09161C11.4742 6.20096 11.192 5.33817 10.676 4.63221C10.8116 4.68086 10.9582 4.70748 11.1122 4.70748C11.8509 4.70748 12.4201 4.09297 12.4201 3.3708C12.4201 3.19764 12.3871 3.0258 12.3227 2.86495C12.2583 2.70408 12.1635 2.55681 12.0429 2.43199C11.9222 2.30713 11.778 2.20715 11.6181 2.1386C11.4581 2.07004 11.2861 2.03451 11.1119 2.03451C10.9376 2.03451 10.7656 2.07004 10.6056 2.1386C10.4457 2.20715 10.3015 2.30714 10.1808 2.43199Z" fill="#616161" stroke="#616161"/>
<path d="M9.25881 7.09149C9.25881 8.11882 8.45825 8.92224 7.50636 8.92224C6.55447 8.92224 5.75391 8.11882 5.75391 7.09149C5.75391 6.06415 6.55447 5.26074 7.50636 5.26074C8.45825 5.26074 9.25881 6.06415 9.25881 7.09149Z" fill="#616161" stroke="#616161"/>
</svg>
