<svg width="12" height="13" viewBox="0 0 12 13" fill="none" xmlns="http://www.w3.org/2000/svg">
<path d="M2.04946 0.607911H2.04907C1.9343 0.60782 1.82021 0.631105 1.71317 0.6769C1.60608 0.722712 1.50763 0.790388 1.42391 0.876925C1.34015 0.963498 1.27282 1.06722 1.22658 1.18258C1.18035 1.29792 1.15632 1.4221 1.15625 1.54791L2.04946 0.607911ZM2.04946 0.607911C2.16419 0.607911 2.27822 0.631282 2.38519 0.677156C2.49221 0.723048 2.59057 0.790795 2.67419 0.877389C2.75785 0.964019 2.82505 1.06778 2.87116 1.18316C2.91729 1.29857 2.94118 1.42281 2.94109 1.54864V1.549M2.04946 0.607911L2.94109 1.549M2.94109 1.549C2.94109 2.09073 2.51875 2.50427 2.04788 2.50427C1.57883 2.50427 1.15634 2.09158 1.15625 1.54809L2.94109 1.549ZM6.68506 5.68827H6.9911L7.13032 5.41573C7.38145 4.92413 7.89426 4.42609 8.84524 4.42609C9.93491 4.42609 10.4693 4.77875 10.7723 5.27113C11.1095 5.81918 11.226 6.63973 11.226 7.70718V11.6079H9.82388V8.20791V8.1974C9.82389 7.75473 9.82391 7.13226 9.62791 6.62004C9.52391 6.34826 9.3556 6.07968 9.08168 5.88196C8.80544 5.68257 8.46525 5.58664 8.07405 5.58664C7.69483 5.58664 7.35999 5.6635 7.08013 5.83342C6.7969 6.00539 6.60918 6.24892 6.48777 6.51445C6.26023 7.0121 6.24831 7.63599 6.24831 8.14191V11.6079H4.84617V4.59573H6.15132V5.18827V5.68827H6.65132H6.68506ZM2.75132 11.6079H1.3476V4.59518H2.75132V11.6079Z" fill="#616161" stroke="#616161"/>
</svg>
