<svg width="14" height="12" viewBox="0 0 14 12" fill="none" xmlns="http://www.w3.org/2000/svg">
<path d="M13.0759 1.39717C12.5906 1.62027 12.0756 1.76687 11.5483 1.83206C12.1039 1.48714 12.52 0.945616 12.7195 0.307712C12.196 0.62933 11.623 0.855271 11.0254 0.975633C10.6604 0.573602 10.187 0.294352 9.66669 0.174101C9.14638 0.0538505 8.60315 0.0981504 8.10747 0.301251C7.61179 0.504352 7.18652 0.856883 6.88682 1.31312C6.58712 1.76936 6.42682 2.30826 6.42671 2.85992C6.42698 3.07092 6.44983 3.28124 6.49484 3.48703C5.43678 3.43249 4.40164 3.14827 3.45664 2.65283C2.51165 2.15739 1.67793 1.4618 1.00964 0.611246C0.669152 1.2169 0.564693 1.93411 0.717547 2.61669C0.870401 3.29928 1.26906 3.89586 1.83228 4.28483C1.41047 4.27219 0.997844 4.15431 0.629518 3.94122V3.97461C0.629815 4.60987 0.841884 5.22559 1.22994 5.71785C1.618 6.21011 2.15828 6.54879 2.75963 6.67673C2.53116 6.73895 2.29588 6.77038 2.05963 6.77024C1.89119 6.77047 1.7231 6.75432 1.55758 6.722C1.72823 7.26858 2.0593 7.74651 2.50471 8.08929C2.95013 8.43207 3.48773 8.62264 4.04271 8.63449C3.0994 9.39827 1.93559 9.81224 0.737817 9.81003C0.526696 9.80976 0.315752 9.79738 0.105957 9.77293C1.24937 10.5306 2.56873 10.956 3.92569 11.0045C5.28265 11.053 6.62722 10.7228 7.81843 10.0485C9.00963 9.37429 10.0036 8.38082 10.696 7.17231C11.3885 5.96379 11.754 4.58475 11.7541 3.17978L11.7462 2.82356C12.2688 2.43486 12.7195 1.95194 13.0767 1.39791L13.0759 1.39717Z" fill="white"/>
</svg>
